<svg width="102" height="81" viewBox="0 0 102 81" fill="none" xmlns="http://www.w3.org/2000/svg">
<circle cx="2.76138" cy="65.6254" r="2" transform="rotate(-81.9157 2.76138 65.6254)" fill="#E2E8F0"/>
<circle cx="5.01138" cy="49.7844" r="2" transform="rotate(-81.9157 5.01138 49.7844)" fill="#E2E8F0"/>
<circle cx="7.26163" cy="33.9433" r="2" transform="rotate(-81.9157 7.26163 33.9433)" fill="#E2E8F0"/>
<circle cx="9.51163" cy="18.1024" r="2" transform="rotate(-81.9157 9.51163 18.1024)" fill="#E2E8F0"/>
<circle cx="11.7616" cy="2.26134" r="2" transform="rotate(-81.9157 11.7616 2.26134)" fill="#E2E8F0"/>
<circle cx="13.652" cy="67.1722" r="2" transform="rotate(-81.9157 13.652 67.1722)" fill="#E2E8F0"/>
<circle cx="15.9023" cy="51.3313" r="2" transform="rotate(-81.9157 15.9023 51.3313)" fill="#E2E8F0"/>
<circle cx="18.1523" cy="35.4903" r="2" transform="rotate(-81.9157 18.1523 35.4903)" fill="#E2E8F0"/>
<circle cx="20.4023" cy="19.6493" r="2" transform="rotate(-81.9157 20.4023 19.6493)" fill="#E2E8F0"/>
<circle cx="22.6525" cy="3.80834" r="2" transform="rotate(-81.9157 22.6525 3.80834)" fill="#E2E8F0"/>
<circle cx="24.5426" cy="68.7192" r="2" transform="rotate(-81.9157 24.5426 68.7192)" fill="#E2E8F0"/>
<circle cx="26.7929" cy="52.8782" r="2" transform="rotate(-81.9157 26.7929 52.8782)" fill="#E2E8F0"/>
<circle cx="29.0429" cy="37.0372" r="2" transform="rotate(-81.9157 29.0429 37.0372)" fill="#E2E8F0"/>
<circle cx="31.2931" cy="21.1963" r="2" transform="rotate(-81.9157 31.2931 21.1963)" fill="#E2E8F0"/>
<circle cx="33.5431" cy="5.35521" r="2" transform="rotate(-81.9157 33.5431 5.35521)" fill="#E2E8F0"/>
<circle cx="35.4335" cy="70.2661" r="2" transform="rotate(-81.9157 35.4335 70.2661)" fill="#E2E8F0"/>
<circle cx="37.6835" cy="54.4252" r="2" transform="rotate(-81.9157 37.6835 54.4252)" fill="#E2E8F0"/>
<circle cx="39.9335" cy="38.5842" r="2" transform="rotate(-81.9157 39.9335 38.5842)" fill="#E2E8F0"/>
<circle cx="42.1837" cy="22.7432" r="2" transform="rotate(-81.9157 42.1837 22.7432)" fill="#E2E8F0"/>
<circle cx="44.4337" cy="6.90221" r="2" transform="rotate(-81.9157 44.4337 6.90221)" fill="#E2E8F0"/>
<circle cx="46.3241" cy="71.8131" r="2" transform="rotate(-81.9157 46.3241 71.8131)" fill="#E2E8F0"/>
<circle cx="48.5741" cy="55.972" r="2" transform="rotate(-81.9157 48.5741 55.972)" fill="#E2E8F0"/>
<circle cx="50.8244" cy="40.1311" r="2" transform="rotate(-81.9157 50.8244 40.1311)" fill="#E2E8F0"/>
<circle cx="53.0744" cy="24.2901" r="2" transform="rotate(-81.9157 53.0744 24.2901)" fill="#E2E8F0"/>
<circle cx="55.3244" cy="8.44909" r="2" transform="rotate(-81.9157 55.3244 8.44909)" fill="#E2E8F0"/>
<circle cx="57.2148" cy="73.36" r="2" transform="rotate(-81.9157 57.2148 73.36)" fill="#E2E8F0"/>
<circle cx="59.465" cy="57.519" r="2" transform="rotate(-81.9157 59.465 57.519)" fill="#E2E8F0"/>
<circle cx="61.715" cy="41.678" r="2" transform="rotate(-81.9157 61.715 41.678)" fill="#E2E8F0"/>
<circle cx="63.965" cy="25.837" r="2" transform="rotate(-81.9157 63.965 25.837)" fill="#E2E8F0"/>
<circle cx="66.2152" cy="9.99608" r="2" transform="rotate(-81.9157 66.2152 9.99608)" fill="#E2E8F0"/>
<circle cx="68.1054" cy="74.907" r="2" transform="rotate(-81.9157 68.1054 74.907)" fill="#E2E8F0"/>
<circle cx="70.3556" cy="59.0659" r="2" transform="rotate(-81.9157 70.3556 59.0659)" fill="#E2E8F0"/>
<circle cx="72.6056" cy="43.225" r="2" transform="rotate(-81.9157 72.6056 43.225)" fill="#E2E8F0"/>
<circle cx="74.8556" cy="27.3839" r="2" transform="rotate(-81.9157 74.8556 27.3839)" fill="#E2E8F0"/>
<circle cx="77.1059" cy="11.543" r="2" transform="rotate(-81.9157 77.1059 11.543)" fill="#E2E8F0"/>
<circle cx="78.9962" cy="76.4538" r="2" transform="rotate(-81.9157 78.9962 76.4538)" fill="#E2E8F0"/>
<circle cx="81.2462" cy="60.6129" r="2" transform="rotate(-81.9157 81.2462 60.6129)" fill="#E2E8F0"/>
<circle cx="83.4962" cy="44.7718" r="2" transform="rotate(-81.9157 83.4962 44.7718)" fill="#E2E8F0"/>
<circle cx="85.7465" cy="28.9309" r="2" transform="rotate(-81.9157 85.7465 28.9309)" fill="#E2E8F0"/>
<circle cx="87.9965" cy="13.09" r="2" transform="rotate(-81.9157 87.9965 13.09)" fill="#E2E8F0"/>
<circle cx="89.8869" cy="78.0008" r="2" transform="rotate(-81.9157 89.8869 78.0008)" fill="#E2E8F0"/>
<circle cx="92.1369" cy="62.1598" r="2" transform="rotate(-81.9157 92.1369 62.1598)" fill="#E2E8F0"/>
<circle cx="94.3871" cy="46.3188" r="2" transform="rotate(-81.9157 94.3871 46.3188)" fill="#E2E8F0"/>
<circle cx="96.6371" cy="30.4778" r="2" transform="rotate(-81.9157 96.6371 30.4778)" fill="#E2E8F0"/>
<circle cx="98.8871" cy="14.6368" r="2" transform="rotate(-81.9157 98.8871 14.6368)" fill="#E2E8F0"/>
</svg>
