<svg width="69" height="92" viewBox="0 0 69 92" fill="none" xmlns="http://www.w3.org/2000/svg">
<circle cx="2.5" cy="2" r="2" fill="#E2E8F0"/>
<circle cx="18.5" cy="2" r="2" fill="#E2E8F0"/>
<circle cx="34.5" cy="2" r="2" fill="#E2E8F0"/>
<circle cx="50.5" cy="2" r="2" fill="#E2E8F0"/>
<circle cx="66.5" cy="2" r="2" fill="#E2E8F0"/>
<circle cx="2.5" cy="13" r="2" fill="#E2E8F0"/>
<circle cx="18.5" cy="13" r="2" fill="#E2E8F0"/>
<circle cx="34.5" cy="13" r="2" fill="#E2E8F0"/>
<circle cx="50.5" cy="13" r="2" fill="#E2E8F0"/>
<circle cx="66.5" cy="13" r="2" fill="#E2E8F0"/>
<circle cx="2.5" cy="24" r="2" fill="#E2E8F0"/>
<circle cx="18.5" cy="24" r="2" fill="#E2E8F0"/>
<circle cx="34.5" cy="24" r="2" fill="#E2E8F0"/>
<circle cx="50.5" cy="24" r="2" fill="#E2E8F0"/>
<circle cx="66.5" cy="24" r="2" fill="#E2E8F0"/>
<circle cx="2.5" cy="35" r="2" fill="#E2E8F0"/>
<circle cx="18.5" cy="35" r="2" fill="#E2E8F0"/>
<circle cx="34.5" cy="35" r="2" fill="#E2E8F0"/>
<circle cx="50.5" cy="35" r="2" fill="#E2E8F0"/>
<circle cx="66.5" cy="35" r="2" fill="#E2E8F0"/>
<circle cx="2.5" cy="46" r="2" fill="#E2E8F0"/>
<circle cx="18.5" cy="46" r="2" fill="#E2E8F0"/>
<circle cx="34.5" cy="46" r="2" fill="#E2E8F0"/>
<circle cx="50.5" cy="46" r="2" fill="#E2E8F0"/>
<circle cx="66.5" cy="46" r="2" fill="#E2E8F0"/>
<circle cx="2.5" cy="57" r="2" fill="#E2E8F0"/>
<circle cx="18.5" cy="57" r="2" fill="#E2E8F0"/>
<circle cx="34.5" cy="57" r="2" fill="#E2E8F0"/>
<circle cx="50.5" cy="57" r="2" fill="#E2E8F0"/>
<circle cx="66.5" cy="57" r="2" fill="#E2E8F0"/>
<circle cx="2.5" cy="68" r="2" fill="#E2E8F0"/>
<circle cx="18.5" cy="68" r="2" fill="#E2E8F0"/>
<circle cx="34.5" cy="68" r="2" fill="#E2E8F0"/>
<circle cx="50.5" cy="68" r="2" fill="#E2E8F0"/>
<circle cx="66.5" cy="68" r="2" fill="#E2E8F0"/>
<circle cx="2.5" cy="79" r="2" fill="#E2E8F0"/>
<circle cx="18.5" cy="79" r="2" fill="#E2E8F0"/>
<circle cx="34.5" cy="79" r="2" fill="#E2E8F0"/>
<circle cx="50.5" cy="79" r="2" fill="#E2E8F0"/>
<circle cx="66.5" cy="79" r="2" fill="#E2E8F0"/>
<circle cx="2.5" cy="90" r="2" fill="#E2E8F0"/>
<circle cx="18.5" cy="90" r="2" fill="#E2E8F0"/>
<circle cx="34.5" cy="90" r="2" fill="#E2E8F0"/>
<circle cx="50.5" cy="90" r="2" fill="#E2E8F0"/>
<circle cx="66.5" cy="90" r="2" fill="#E2E8F0"/>
</svg>
